<svg xmlns="http://www.w3.org/2000/svg" viewBox="0 0 512 512">
  <defs>
    <linearGradient id="bg" x1="0" y1="0" x2="0" y2="1">
      <stop offset="0%" stop-color="#1A1A1A"/>
      <stop offset="100%" stop-color="#000000"/>
    </linearGradient>
  </defs>
  <!-- Background -->
  <rect width="512" height="512" rx="108" fill="url(#bg)"/>
  <!-- Shoe 1 (front, slightly larger — the "you") -->
  <g transform="translate(270,232) scale(1.15) rotate(-8)" fill="#fff">
    <path d="M-48,16 C-48,16 -44,26 -28,26 L38,26 C50,26 54,20 54,16 L54,10 C54,6 50,2 44,2 L-32,2 C-44,2 -48,8 -48,16Z" opacity="0.95"/>
    <path d="M-32,2 C-32,2 -36,-18 -28,-30 C-20,-42 -8,-46 6,-42 L30,-32 C38,-30 44,-22 44,-10 L44,2Z" opacity="0.95"/>
    <line x1="-8" y1="-28" x2="10" y2="-34" stroke="#1A1A1A" stroke-width="2.5" stroke-linecap="round"/>
    <line x1="-4" y1="-18" x2="14" y2="-24" stroke="#1A1A1A" stroke-width="2.5" stroke-linecap="round"/>
    <line x1="0" y1="-8" x2="20" y2="-14" stroke="#1A1A1A" stroke-width="2.5" stroke-linecap="round"/>
  </g>
  <!-- Shoe 2 (behind, slightly smaller — the "mate") -->
  <g transform="translate(218,292) scale(0.95) rotate(-5)" fill="rgba(255,255,255,0.7)">
    <path d="M-48,16 C-48,16 -44,26 -28,26 L38,26 C50,26 54,20 54,16 L54,10 C54,6 50,2 44,2 L-32,2 C-44,2 -48,8 -48,16Z" opacity="0.95"/>
    <path d="M-32,2 C-32,2 -36,-18 -28,-30 C-20,-42 -8,-46 6,-42 L30,-32 C38,-30 44,-22 44,-10 L44,2Z" opacity="0.95"/>
    <line x1="-8" y1="-28" x2="10" y2="-34" stroke="#1A1A1A" stroke-width="2.5" stroke-linecap="round"/>
    <line x1="-4" y1="-18" x2="14" y2="-24" stroke="#1A1A1A" stroke-width="2.5" stroke-linecap="round"/>
    <line x1="0" y1="-8" x2="20" y2="-14" stroke="#1A1A1A" stroke-width="2.5" stroke-linecap="round"/>
  </g>
</svg>
